<?xml version="1.0" encoding="UTF-8" standalone="no"?>
<svg
   xmlns:dc="http://purl.org/dc/elements/1.1/"
   xmlns:cc="http://creativecommons.org/ns#"
   xmlns:rdf="http://www.w3.org/1999/02/22-rdf-syntax-ns#"
   xmlns:svg="http://www.w3.org/2000/svg"
   xmlns="http://www.w3.org/2000/svg"
   width="64.5mm"
   height="64.5mm"
   viewBox="0 0 64.499998 64.499998"
   version="1.1"
   id="svg1525">
  <metadata
     id="metadata1531">
    <rdf:RDF>
      <cc:Work
         rdf:about="">
        <dc:format>image/svg+xml</dc:format>
        <dc:type
           rdf:resource="http://purl.org/dc/dcmitype/StillImage" />
        <dc:title></dc:title>
      </cc:Work>
    </rdf:RDF>
  </metadata>
  <defs
     id="defs1529" />
  <path
     id="path2150"
     style="fill:#f7ff01;fill-opacity:1;fill-rule:evenodd;stroke:#000000;stroke-width:1.88976;stroke-linecap:round;stroke-linejoin:round;stroke-dashoffset:1.70078;stroke-opacity:1;paint-order:fill markers stroke;stop-color:#000000"
     d="M 22.517578 18.169922 L 1.0429688 39.644531 L 1.0429688 242.89258 L 227.82031 242.89258 A 321.87028 321.87011 0 0 0 230.80664 199.15039 A 321.87028 321.87011 0 0 0 230.80469 198.53906 L 189.17578 198.53906 A 321.87028 321.87011 0 0 0 178.26562 121.31641 A 321.87028 321.87011 0 0 0 178.10547 120.72852 L 137.89453 131.50391 A 321.87028 321.87011 0 0 0 107.36914 59.734375 L 107.37109 59.734375 A 321.87028 321.87011 0 0 0 107.0625 59.207031 L 71.009766 80.021484 A 321.87028 321.87011 0 0 0 22.951172 18.599609 A 321.87028 321.87011 0 0 0 22.517578 18.169922 z "
     transform="scale(0.26458333)" />
</svg>
