<?xml version="1.0" encoding="UTF-8" standalone="no"?>
<svg
   xmlns:dc="http://purl.org/dc/elements/1.1/"
   xmlns:cc="http://creativecommons.org/ns#"
   xmlns:rdf="http://www.w3.org/1999/02/22-rdf-syntax-ns#"
   xmlns:svg="http://www.w3.org/2000/svg"
   xmlns="http://www.w3.org/2000/svg"
   xmlns:sodipodi="http://sodipodi.sourceforge.net/DTD/sodipodi-0.dtd"
   xmlns:inkscape="http://www.inkscape.org/namespaces/inkscape"
   width="64.5mm"
   height="64.5mm"
   viewBox="0 0 64.499998 64.499998"
   version="1.1"
   id="svg1525"
   sodipodi:docname="InternalDirected.svg"
   inkscape:version="1.0.1 (3bc2e813f5, 2020-09-07)">
  <metadata
     id="metadata1531">
    <rdf:RDF>
      <cc:Work
         rdf:about="">
        <dc:format>image/svg+xml</dc:format>
        <dc:type
           rdf:resource="http://purl.org/dc/dcmitype/StillImage" />
        <dc:title></dc:title>
      </cc:Work>
    </rdf:RDF>
  </metadata>
  <defs
     id="defs1529" />
  <sodipodi:namedview
     pagecolor="#ffffff"
     bordercolor="#666666"
     borderopacity="1"
     objecttolerance="10"
     gridtolerance="10"
     guidetolerance="10"
     inkscape:pageopacity="0"
     inkscape:pageshadow="2"
     inkscape:window-width="1920"
     inkscape:window-height="1112"
     id="namedview1527"
     showgrid="false"
     inkscape:zoom="0.91706674"
     inkscape:cx="-320.8691"
     inkscape:cy="279.61635"
     inkscape:window-x="-8"
     inkscape:window-y="-8"
     inkscape:window-maximized="1"
     inkscape:current-layer="svg1525" />
  <path
     id="rect2142"
     style="fill:#f7ff01;fill-opacity:1;fill-rule:evenodd;stroke:#000000;stroke-width:1.88976;stroke-linecap:round;stroke-linejoin:round;stroke-dashoffset:1.70078;stroke-opacity:1;paint-order:fill markers stroke;stop-color:#000000"
     d="M 1.0429688 1.0429688 L 1.0429688 17.345703 A 229.90952 229.89842 0 0 1 37.654297 46.058594 L 58.679688 25.033203 A 229.90952 229.89842 0 0 1 58.990234 25.339844 A 229.90952 229.89842 0 0 1 93.318359 69.210938 L 119.07031 54.34375 A 229.90952 229.89842 0 0 1 119.28906 54.720703 A 229.90952 229.89842 0 0 1 141.09375 105.98242 L 169.81641 98.285156 A 229.90952 229.89842 0 0 1 169.92969 98.707031 A 229.90952 229.89842 0 0 1 177.72266 153.86328 L 207.45898 153.86328 A 229.90952 229.89842 0 0 1 207.45898 154.29883 A 229.90952 229.89842 0 0 1 200.71094 209.59375 L 229.43359 217.28906 A 229.90952 229.89842 0 0 1 229.32031 217.71094 A 229.90952 229.89842 0 0 1 220.98828 242.89258 L 242.89258 242.89258 L 242.89258 1.0429688 L 1.0429688 1.0429688 z "
     transform="scale(0.26458333)" />
</svg>
