<?xml version="1.0" encoding="UTF-8" standalone="no"?>
<svg
   width="64.5mm"
   height="64.5mm"
   viewBox="0 0 64.499998 64.499998"
   version="1.1"
   id="svg1525"
   sodipodi:docname="icon.svg"
   inkscape:version="1.4.3 (0d15f75042, 2025-12-25)"
   xmlns:inkscape="http://www.inkscape.org/namespaces/inkscape"
   xmlns:sodipodi="http://sodipodi.sourceforge.net/DTD/sodipodi-0.dtd"
   xmlns="http://www.w3.org/2000/svg"
   xmlns:svg="http://www.w3.org/2000/svg"
   xmlns:rdf="http://www.w3.org/1999/02/22-rdf-syntax-ns#"
   xmlns:cc="http://creativecommons.org/ns#"
   xmlns:dc="http://purl.org/dc/elements/1.1/">
  <sodipodi:namedview
     id="namedview1"
     pagecolor="#ffffff"
     bordercolor="#000000"
     borderopacity="0.25"
     inkscape:showpageshadow="2"
     inkscape:pageopacity="0.0"
     inkscape:pagecheckerboard="0"
     inkscape:deskcolor="#d1d1d1"
     inkscape:document-units="mm"
     inkscape:zoom="3.6467377"
     inkscape:cx="121.75265"
     inkscape:cy="121.88976"
     inkscape:window-width="1920"
     inkscape:window-height="1133"
     inkscape:window-x="0"
     inkscape:window-y="1080"
     inkscape:window-maximized="1"
     inkscape:current-layer="svg1525" />
  <metadata
     id="metadata1531">
    <rdf:RDF>
      <cc:Work
         rdf:about="">
        <dc:format>image/svg+xml</dc:format>
        <dc:type
           rdf:resource="http://purl.org/dc/dcmitype/StillImage" />
        <dc:title />
      </cc:Work>
    </rdf:RDF>
  </metadata>
  <defs
     id="defs1529" />
  <path
     id="path2150"
     style="fill:#ebcb8b;fill-opacity:1;fill-rule:evenodd;stroke:#2e3440;stroke-width:1.88976;stroke-linecap:round;stroke-linejoin:round;stroke-dashoffset:1.70078;stroke-opacity:1;paint-order:fill markers stroke;stop-color:#000000"
     d="M 22.517578 18.169922 L 1.0429688 39.644531 L 1.0429688 242.89258 L 227.82031 242.89258 A 321.87028 321.87011 0 0 0 230.80664 199.15039 A 321.87028 321.87011 0 0 0 230.80469 198.53906 L 189.17578 198.53906 A 321.87028 321.87011 0 0 0 178.26562 121.31641 A 321.87028 321.87011 0 0 0 178.10547 120.72852 L 137.89453 131.50391 A 321.87028 321.87011 0 0 0 107.36914 59.734375 L 107.37109 59.734375 A 321.87028 321.87011 0 0 0 107.0625 59.207031 L 71.009766 80.021484 A 321.87028 321.87011 0 0 0 22.951172 18.599609 A 321.87028 321.87011 0 0 0 22.517578 18.169922 z "
     transform="scale(0.26458333)" />
</svg>
